<svg width="1188" height="799" viewBox="0 0 1188 799" version="1.1" xmlns="http://www.w3.org/2000/svg" xmlns:xlink="http://www.w3.org/1999/xlink">
<title>logo</title>
<desc>Created using Figma</desc>
<g id="Canvas" transform="translate(5029 6567)">
<g id="logo">
<g id="Vector">
<mask id="mask0_outline_ins">
<use xlink:href="#path0_fill" fill="white" transform="matrix(0.936159 -0.351577 0.352197 0.935926 -4754.83 -6258.75)"/>
</mask>
<g mask="url(#mask0_outline_ins)">
<use xlink:href="#path1_stroke_2x" transform="matrix(0.936159 -0.351577 0.352197 0.935926 -4754.83 -6258.75)" fill="#FFFFFF"/>
</g>
</g>
<g id="Vector">
<mask id="mask1_outline_ins">
<use xlink:href="#path2_fill" fill="white" transform="matrix(0.936159 -0.351577 0.352197 0.935926 -4832.82 -6319.19)"/>
</mask>
<g mask="url(#mask1_outline_ins)">
<use xlink:href="#path3_stroke_2x" transform="matrix(0.936159 -0.351577 0.352197 0.935926 -4832.82 -6319.19)" fill="#FFFFFF"/>
</g>
</g>
<g id="Vector">
<mask id="mask2_outline_ins">
<use xlink:href="#path4_fill" fill="white" transform="matrix(0.936159 -0.351577 0.352197 0.935926 -4437.78 -6468.15)"/>
</mask>
<g mask="url(#mask2_outline_ins)">
<use xlink:href="#path5_stroke_2x" transform="matrix(0.936159 -0.351577 0.352197 0.935926 -4437.78 -6468.15)" fill="#FFFFFF"/>
</g>
</g>
<g id="Vector">
<mask id="mask3_outline_ins">
<use xlink:href="#path6_fill" fill="white" transform="matrix(0.936159 -0.351577 0.352197 0.935926 -4901.29 -5945.28)"/>
</mask>
<g mask="url(#mask3_outline_ins)">
<use xlink:href="#path7_stroke_2x" transform="matrix(0.936159 -0.351577 0.352197 0.935926 -4901.29 -5945.28)" fill="#FFFFFF"/>
</g>
</g>
<g id="Vector">
<mask id="mask4_outline_ins">
<use xlink:href="#path8_fill" fill="white" transform="matrix(0.936159 -0.351577 0.352197 0.935926 -5035.53 -6160.05)"/>
</mask>
<g mask="url(#mask4_outline_ins)">
<use xlink:href="#path9_stroke_2x" transform="matrix(0.936159 -0.351577 0.352197 0.935926 -5035.53 -6160.05)" fill="#FFFFFF"/>
</g>
</g>
<g id="Vector">
<mask id="mask5_outline_ins">
<use xlink:href="#path10_fill" fill="white" transform="matrix(0.936159 -0.351577 0.352197 0.935926 -4594.16 -5953.56)"/>
</mask>
<g mask="url(#mask5_outline_ins)">
<use xlink:href="#path11_stroke_2x" transform="matrix(0.936159 -0.351577 0.352197 0.935926 -4594.16 -5953.56)" fill="#FFFFFF"/>
</g>
</g>
</g>
</g>
<defs>
<path id="path0_fill" d="M 101.829 7.61136L -2.4469e-05 0L 64.5449 32.0478C 77.3738 23.2347 89.8016 14.8221 101.829 7.61136Z"/>
<path id="path1_stroke_2x" d="M 101.829 7.61136L 114.684 29.053L 182.237 -11.4481L 103.692 -17.3191L 101.829 7.61136ZM -2.4469e-05 0L 1.86345 -24.9305L -11.118 22.3918L -2.4469e-05 0ZM 64.5449 32.0478L 53.427 54.4396L 66.5888 60.9746L 78.7009 52.6538L 64.5449 32.0478ZM 103.692 -17.3191L 1.86345 -24.9305L -1.86349 24.9305L 99.9652 32.5418L 103.692 -17.3191ZM -11.118 22.3918L 53.427 54.4396L 75.6629 9.65602L 11.1179 -22.3918L -11.118 22.3918ZM 78.7009 52.6538C 91.4588 43.8892 103.241 35.9023 114.684 29.053L 88.9734 -13.8303C 76.3619 -6.25809 63.2887 2.58008 50.389 11.4418L 78.7009 52.6538Z"/>
<path id="path2_fill" d="M 440.593 331.695C 415.337 285.225 396.093 218.326 399.701 159.438C 402.909 100.55 428.967 50.4753 454.625 0L 453.823 0.400599C 374.445 18.0269 295.467 35.6532 222.103 71.3063C 188.828 87.3302 156.355 107.36 125.085 128.992L 244.152 163.043L 207.269 181.471C 180.008 195.091 151.544 209.112 118.67 217.925C 85.7965 226.338 43.4288 228.342 7.74866 231.146L 4.54145 231.547C 0.532442 252.778 -2.27386 274.01 2.53694 294.44C 6.14505 309.663 4.56763 313.07 13.7883 327.892L 56.1299 320.478L 59.738 320.077C 86.1975 316.472 113.459 312.466 140.319 312.466C 145.932 312.466 151.143 312.466 156.355 312.867C 188.427 314.87 218.495 323.683 247.76 332.095L 286.247 343.312L 151.143 412.615C 194.841 428.639 238.54 441.458 283.841 447.067C 363.621 456.681 446.607 443.461 529.192 429.841C 497.521 403.802 465.85 378.164 440.593 331.695Z"/>
<path id="path3_stroke_2x" d="M 399.701 159.438L 424.655 160.967L 424.66 160.882L 424.664 160.797L 399.701 159.438ZM 454.625 0L 476.911 11.3284L 511.256 -56.2383L 443.452 -22.3644L 454.625 0ZM 453.823 0.400599L 459.242 24.8061L 462.245 24.1395L 464.996 22.765L 453.823 0.400599ZM 222.103 71.3063L 232.95 93.8307L 232.99 93.8113L 233.03 93.7918L 222.103 71.3063ZM 125.085 128.992L 110.862 108.433L 67.4008 138.498L 118.211 153.029L 125.085 128.992ZM 244.152 163.043L 255.326 185.407L 312.824 156.68L 251.026 139.007L 244.152 163.043ZM 207.269 181.471L 196.096 159.107L 196.096 159.107L 207.269 181.471ZM 118.67 217.925L 124.868 242.145L 125.006 242.109L 125.144 242.072L 118.67 217.925ZM 7.74866 231.146L 5.78989 206.223L 5.21872 206.268L 4.65021 206.339L 7.74866 231.146ZM 4.54145 231.547L 1.44299 206.739L -16.6427 208.998L -20.0245 226.908L 4.54145 231.547ZM 2.53694 294.44L -21.7975 300.171L -21.7933 300.188L -21.7891 300.206L 2.53694 294.44ZM 13.7883 327.892L -7.43932 341.097L 1.47565 355.428L 18.1001 352.517L 13.7883 327.892ZM 56.1299 320.478L 53.3713 295.631L 52.5913 295.717L 51.8182 295.853L 56.1299 320.478ZM 59.738 320.077L 62.4967 344.925L 62.8055 344.89L 63.1134 344.848L 59.738 320.077ZM 156.355 312.867L 154.439 337.793L 154.618 337.807L 154.797 337.818L 156.355 312.867ZM 247.76 332.095L 254.755 308.094L 254.711 308.081L 254.667 308.068L 247.76 332.095ZM 286.247 343.312L 297.657 365.556L 353.547 336.886L 293.242 319.311L 286.247 343.312ZM 151.143 412.615L 139.733 390.371L 88.9316 416.431L 142.536 436.087L 151.143 412.615ZM 283.841 447.067L 280.77 471.877L 280.81 471.882L 280.85 471.887L 283.841 447.067ZM 529.192 429.841L 533.26 454.508L 587.65 445.538L 545.069 410.53L 529.192 429.841ZM 462.559 319.756C 438.469 275.745 420.944 215.595 424.655 160.967L 374.748 157.909C 371.243 221.056 392.204 294.706 418.628 343.633L 462.559 319.756ZM 424.664 160.797C 427.022 107.149 451.199 61.91 476.911 11.3284L 432.339 -11.3284C 406.736 39.0406 378.795 93.9511 374.738 158.078L 424.664 160.797ZM 443.452 -22.3644L 442.65 -21.9638L 464.996 22.765L 465.798 22.3644L 443.452 -22.3644ZM 448.404 -24.0049C 369.012 -6.37574 287.225 12.0509 211.175 48.8209L 233.03 93.7918C 303.71 59.2554 379.877 42.4295 459.242 24.8061L 448.404 -24.0049ZM 211.256 48.782C 176.826 65.3996 142.676 86.4341 110.862 108.433L 139.308 149.552C 170.033 128.286 200.83 109.261 232.95 93.8307L 211.256 48.782ZM 118.211 153.029L 237.278 187.08L 251.026 139.007L 131.959 104.956L 118.211 153.029ZM 232.979 140.679L 196.096 159.107L 218.443 203.835L 255.326 185.407L 232.979 140.679ZM 196.096 159.107C 168.898 172.695 142.742 185.713 112.197 193.778L 125.144 242.072C 160.347 232.511 191.118 217.486 218.443 203.835L 196.096 159.107ZM 112.472 193.705C 82.0877 201.614 41.8585 203.391 5.78989 206.223L 9.70743 256.069C 44.999 253.292 89.5052 251.061 124.868 242.145L 112.472 193.705ZM 4.65021 206.339L 1.44299 206.739L 7.6399 256.354L 10.8471 255.953L 4.65021 206.339ZM -20.0245 226.908C -24.1521 248.82 -27.2427 275.258 -21.7975 300.171L 26.8714 288.71C 22.695 272.762 25.217 256.737 29.1073 236.185L -20.0245 226.908ZM -21.7891 300.206C -20.2959 306.297 -19.7356 311.249 -18.123 317.663C -16.4092 323.95 -13.034 331.953 -7.43932 341.097L 35.016 314.686C 31.3193 308.744 30.6423 306.506 30.2389 304.97C 29.4329 302.169 28.9779 297.806 26.863 288.675L -21.7891 300.206ZM 18.1001 352.517L 60.4416 345.103L 51.8182 295.853L 9.47663 303.266L 18.1001 352.517ZM 58.8885 345.325L 62.4967 344.925L 56.9794 295.23L 53.3713 295.631L 58.8885 345.325ZM 63.1134 344.848C 89.7025 341.225 115.281 337.4 140.319 337.466L 140.319 287.466C 111.637 287.533 82.6924 291.719 56.3627 295.306L 63.1134 344.848ZM 140.319 337.466C 145.932 337.466 150.185 337.448 154.439 337.793L 158.271 287.94C 152.102 287.484 145.932 287.466 140.319 287.466L 140.319 337.466ZM 154.797 337.818C 184.105 339.493 211.525 347.692 240.854 356.122L 254.667 308.068C 225.464 299.674 192.749 290.246 157.913 287.915L 154.797 337.818ZM 240.765 356.097L 279.252 367.313L 293.242 319.311L 254.755 308.094L 240.765 356.097ZM 274.836 321.068L 139.733 390.371L 162.554 434.86L 297.657 365.556L 274.836 321.068ZM 142.536 436.087C 187.015 452.383 233.468 465.939 280.77 471.877L 286.913 422.256C 243.611 416.978 202.668 404.896 159.75 389.144L 142.536 436.087ZM 280.85 471.887C 364.096 481.677 450.607 468.139 533.26 454.508L 525.124 405.174C 442.606 418.784 363.145 431.686 286.832 422.246L 280.85 471.887ZM 545.069 410.53C 513.325 384.431 485.066 362.172 462.559 319.756L 418.628 343.633C 446.634 394.156 481.718 423.174 513.315 449.152L 545.069 410.53Z"/>
<path id="path4_fill" d="M 330.271 22.2926C 242.474 -0.942058 149.866 -0.54146 57.2584 0.259735L 53.6503 7.06989C 27.9927 57.5452 3.53766 104.816 0.33046 160.098C -2.47584 210.573 12.7584 275.07 39.6188 323.542C 63.6728 367.207 92.9384 391.243 124.61 416.481L 131.425 422.089C 217.618 397.252 304.213 372.014 379.181 325.545C 455.352 278.274 519.897 208.971 584.843 139.668C 501.055 92.7978 418.069 45.5273 330.271 22.2926Z"/>
<path id="path5_stroke_2x" d="M 57.2584 0.259735L 57.0421 -24.7393L 42.1428 -24.6104L 35.1673 -11.4443L 57.2584 0.259735ZM 53.6503 7.06989L 31.5592 -4.63416L 31.4601 -4.44718L 31.3643 -4.25855L 53.6503 7.06989ZM 0.33046 160.098L -24.6276 158.65L -24.6293 158.68L -24.631 158.71L 0.33046 160.098ZM 39.6188 323.542L 61.5161 311.479L 61.501 311.452L 61.4858 311.425L 39.6188 323.542ZM 124.61 416.481L 140.495 397.176L 140.343 397.051L 140.19 396.929L 124.61 416.481ZM 131.425 422.089L 115.539 441.393L 125.701 449.755L 138.347 446.111L 131.425 422.089ZM 379.181 325.545L 392.352 346.794L 392.364 346.787L 379.181 325.545ZM 584.843 139.668L 603.085 156.763L 624.934 133.448L 597.048 117.849L 584.843 139.668ZM 336.667 -1.87543C 245.646 -25.7401 149.704 -25.5409 57.0421 -24.7393L 57.4746 25.2588C 150.029 24.458 239.303 23.856 323.876 46.4606L 336.667 -1.87543ZM 35.1673 -11.4443L 31.5592 -4.63416L 75.7413 18.7739L 79.3494 11.9638L 35.1673 -11.4443ZM 31.3643 -4.25855C 5.74724 46.1372 -20.572 98.2031 -24.6276 158.65L 25.2885 161.546C 27.6473 111.428 50.2381 68.9531 75.9363 18.3983L 31.3643 -4.25855ZM -24.631 158.71C -27.7169 214.214 -11.2286 283.361 17.7517 335.659L 61.4858 311.425C 36.7455 266.778 22.7652 206.933 25.2919 161.486L -24.631 158.71ZM 17.7215 335.605C 44.4452 383.185 77.2145 410.679 109.03 436.032L 140.19 396.929C 108.662 371.807 82.9004 351.229 61.5161 311.479L 17.7215 335.605ZM 108.724 435.785L 115.539 441.393L 147.31 402.785L 140.495 397.176L 108.724 435.785ZM 138.347 446.111C 224.577 421.264 314.39 394.849 392.352 346.794L 366.01 304.296C 294.036 349.179 210.66 373.24 124.503 398.066L 138.347 446.111ZM 392.364 346.787C 471.231 297.585 538.166 226.038 603.085 156.763L 566.601 122.573C 501.629 191.904 439.474 258.964 365.999 304.303L 392.364 346.787ZM 597.048 117.849C 513.344 71.0269 427.533 22.3879 336.667 -1.87543L 323.876 46.4606C 408.605 68.6666 488.766 114.569 572.638 161.486L 597.048 117.849Z"/>
<path id="path6_fill" d="M 17.5732 193.088C 11.1588 193.088 4.74437 192.287 1.53717 187.079C -4.07544 177.865 6.34799 170.254 21.9831 158.637L 237.267 8.01194L 239.271 7.61134C 265.33 4.00597 292.591 -1.22253e-05 318.649 -1.22253e-05C 323.861 -1.22253e-05 329.073 1.22074e-05 334.284 0.40061C 365.555 2.4036 395.221 11.2167 423.685 19.2287L 442.928 24.837L 151.073 177.064C 147.866 178.666 144.258 180.269 140.65 181.471C 136.641 182.672 133.032 182.672 129.023 183.073L 38.8209 191.085C 31.2038 192.287 23.5867 193.088 17.5732 193.088Z"/>
<path id="path7_stroke_2x" d="M 1.53717 187.079L -19.8134 200.085L -19.7818 200.137L -19.7499 200.189L 1.53717 187.079ZM 21.9831 158.637L 7.65126 138.152L 7.35906 138.357L 7.0728 138.57L 21.9831 158.637ZM 237.267 8.01194L 232.367 -16.5033L 227.229 -15.4763L 222.935 -12.4722L 237.267 8.01194ZM 239.271 7.61134L 235.845 -17.1528L 235.105 -17.0503L 234.372 -16.9039L 239.271 7.61134ZM 334.284 0.40061L 332.368 25.3271L 332.527 25.3393L 332.686 25.3495L 334.284 0.40061ZM 423.685 19.2287L 430.68 -4.77275L 430.57 -4.80497L 430.459 -4.83617L 423.685 19.2287ZM 442.928 24.837L 454.49 47.0031L 509.638 18.239L 449.924 0.835619L 442.928 24.837ZM 151.073 177.064L 162.247 199.428L 162.441 199.331L 162.634 199.23L 151.073 177.064ZM 140.65 181.471L 147.828 205.418L 148.191 205.309L 148.55 205.189L 140.65 181.471ZM 129.023 183.073L 131.235 207.975L 131.372 207.963L 131.509 207.949L 129.023 183.073ZM 38.8209 191.085L 36.6091 166.183L 35.7634 166.258L 34.9247 166.39L 38.8209 191.085ZM 17.5732 168.088C 14.9965 168.088 14.7908 167.864 15.6095 168.113C 16.1932 168.29 17.405 168.736 18.838 169.739C 20.3511 170.799 21.7589 172.239 22.8242 173.969L -19.7499 200.189C -8.54691 218.38 12.1937 218.088 17.5732 218.088L 17.5732 168.088ZM 22.8878 174.073C 24.3484 176.471 25.6086 180.577 24.6925 185.221C 23.9591 188.938 22.2642 190.624 22.7824 190.019C 23.2238 189.503 24.423 188.303 27.0997 186.144C 29.7829 183.973 32.9696 181.619 36.8934 178.704L 7.0728 138.57C 0.318063 143.589 -9.0591 150.33 -15.198 157.5C -18.5384 161.401 -22.764 167.444 -24.3619 175.542C -26.1424 184.567 -24.0804 193.08 -19.8134 200.085L 22.8878 174.073ZM 36.315 179.121L 251.598 28.496L 222.935 -12.4722L 7.65126 138.152L 36.315 179.121ZM 242.166 32.5272L 244.17 32.1266L 234.372 -16.9039L 232.367 -16.5033L 242.166 32.5272ZM 242.697 32.3754C 268.86 28.7554 294.413 24.9335 318.649 25L 318.649 -25C 290.769 -24.9335 261.799 -20.7435 235.845 -17.1528L 242.697 32.3754ZM 318.649 25C 323.861 25 328.114 24.9816 332.368 25.3271L 336.2 -24.5259C 330.031 -24.9816 323.861 -25 318.649 -25L 318.649 25ZM 332.686 25.3495C 361.168 27.0158 388.275 35.2322 416.911 43.2935L 430.459 -4.83617C 402.168 -12.7988 369.941 -22.2086 335.883 -24.5483L 332.686 25.3495ZM 416.69 43.2301L 435.933 48.8385L 449.924 0.835619L 430.68 -4.77275L 416.69 43.2301ZM 431.367 2.67101L 139.512 154.898L 162.634 199.23L 454.49 47.0031L 431.367 2.67101ZM 139.899 154.7C 137.203 156.055 135.223 156.958 132.749 157.752L 148.55 205.189C 153.292 203.579 158.529 201.278 162.247 199.428L 139.899 154.7ZM 133.471 157.523C 133.246 157.605 133.626 157.511 133.237 157.574C 132.876 157.647 132.851 157.645 132.221 157.709C 131.594 157.778 130.979 157.824 130.027 157.898C 129.075 157.972 127.825 158.07 126.538 158.197L 131.509 207.949C 134.277 207.641 140.268 207.408 147.828 205.418L 133.471 157.523ZM 126.812 158.171L 36.6091 166.183L 41.0327 215.987L 131.235 207.975L 126.812 158.171ZM 34.9247 166.39C 27.947 167.5 22.2773 168.122 17.5732 168.088L 17.5732 218.088C 24.8961 218.054 34.4606 217.074 42.7171 215.779L 34.9247 166.39Z"/>
<path id="path8_fill" d="M 25.931 43.6651C 8.29134 35.2526 -2.93388 29.6442 0.674223 19.2287C 3.48053 11.6173 13.503 10.4155 36.3543 8.41254L 126.557 0.400591C 129.363 -6.13231e-06 131.769 0 134.575 0C 135.778 0 136.98 0 138.183 0C 142.192 0.400597 145.8 1.20179 149.007 2.40358L 443.268 86.1284L 424.827 95.3422C 397.966 108.962 369.903 122.983 337.831 130.995C 305.759 139.007 269.277 141.811 233.998 144.215L 231.994 144.215L 25.931 43.6651Z"/>
<path id="path9_stroke_2x" d="M 25.931 43.6651L 36.8943 21.1973L 36.7937 21.1481L 36.6926 21.0999L 25.931 43.6651ZM 0.674223 19.2287L -22.7822 10.5803L -22.8677 10.812L -22.9485 11.0454L 0.674223 19.2287ZM 36.3543 8.41254L 38.5373 33.3171L 38.5517 33.3158L 38.5662 33.3145L 36.3543 8.41254ZM 126.557 0.400591L 128.769 25.3026L 129.431 25.2437L 130.09 25.1497L 126.557 0.400591ZM 138.183 0L 140.669 -24.8761L 139.429 -25L 138.183 -25L 138.183 0ZM 149.007 2.40358L 140.235 25.814L 141.187 26.1709L 142.166 26.4492L 149.007 2.40358ZM 443.268 86.1284L 454.442 108.493L 512.055 79.7078L 450.11 62.0828L 443.268 86.1284ZM 424.827 95.3422L 413.653 72.9781L 413.587 73.0114L 413.52 73.045L 424.827 95.3422ZM 337.831 130.995L 331.772 106.741L 337.831 130.995ZM 233.998 144.215L 233.998 169.215L 234.849 169.215L 235.697 169.157L 233.998 144.215ZM 231.994 144.215L 221.03 166.683L 226.22 169.215L 231.994 169.215L 231.994 144.215ZM 36.6926 21.0999C 32.3191 19.0142 28.8574 17.3567 25.8858 15.7496C 22.9534 14.171 21.6588 13.2551 21.2276 12.9C 20.7604 12.5152 22.6284 13.8621 23.935 17.2406C 25.5105 21.3147 25.0786 25.1556 24.297 27.412L -22.9485 11.0454C -25.5342 18.5095 -25.916 26.9573 -22.6993 35.2752C -19.7516 42.8975 -14.6513 48.1252 -10.5582 51.4961C -3.0981 57.6399 7.38831 62.5194 15.1693 66.2303L 36.6926 21.0999ZM 24.1307 27.8771C 23.0578 30.7869 21.0544 33.2986 18.8002 34.9171C 17.0499 36.1738 16.0404 36.2413 17.3552 35.8955C 18.5976 35.5688 20.7847 35.1551 24.5683 34.6923C 28.3905 34.222 32.8753 33.8133 38.5373 33.3171L 34.1714 -16.492C 22.6243 -15.4795 12.3044 -14.3935 4.63955 -12.4606C -4.3491 -10.0969 -17.2323 -4.47242 -22.7822 10.5803L 24.1307 27.8771ZM 38.5662 33.3145L 128.769 25.3026L 124.345 -24.5014L 34.1425 -16.4894L 38.5662 33.3145ZM 130.09 25.1497C 131.134 24.9372 131.769 25 134.575 25L 134.575 -25C 131.769 -25 127.592 -24.9372 123.024 -24.3485L 130.09 25.1497ZM 134.575 25C 135.778 25 136.98 25 138.183 25L 138.183 -25C 136.98 -25 135.778 -25 134.575 -25L 134.575 25ZM 135.697 24.8761C 138.233 25.085 138.687 25.1685 140.235 25.814L 157.78 -21.0068C 152.913 -22.7649 146.152 -24.2839 140.669 -24.8761L 135.697 24.8761ZM 142.166 26.4492L 436.426 110.174L 450.11 62.0828L 155.849 -21.6421L 142.166 26.4492ZM 432.095 63.7644L 413.653 72.9781L 436 117.706L 454.442 108.493L 432.095 63.7644ZM 413.52 73.045C 386.726 86.6318 361.235 99.5342 331.772 106.741L 343.89 155.25C 378.571 146.433 409.206 131.293 436.133 117.639L 413.52 73.045ZM 331.772 106.741C 301.758 114.33 267.47 116.877 232.299 119.273L 235.697 169.157C 271.085 166.746 309.761 163.685 343.89 155.25L 331.772 106.741ZM 233.998 119.215L 231.994 119.215L 231.994 169.215L 233.998 169.215L 233.998 119.215ZM 242.957 121.747L 36.8943 21.1973L 14.9676 66.133L 221.03 166.683L 242.957 121.747Z"/>
<path id="path10_fill" d="M 50.9144 -4.54299e-06L 2.39594e-05 37.6562L 92.2071 13.6203C 78.9774 9.61437 65.3468 5.20776 50.9144 -4.54299e-06Z"/>
<path id="path11_stroke_2x" d="M 50.9144 -4.54299e-06L 59.3998 -23.5159L 46.8098 -28.0589L 36.0486 -20.0999L 50.9144 -4.54299e-06ZM 2.39594e-05 37.6562L -14.8658 17.5563L 6.30611 61.8478L 2.39594e-05 37.6562ZM 92.2071 13.6203L 98.5132 37.8119L 184.414 15.4199L 99.4523 -10.3068L 92.2071 13.6203ZM 36.0486 -20.0999L -14.8658 17.5563L 14.8659 57.7561L 65.7803 20.0999L 36.0486 -20.0999ZM 6.30611 61.8478L 98.5132 37.8119L 85.901 -10.5713L -6.30606 13.4646L 6.30611 61.8478ZM 99.4523 -10.3068C 86.4455 -14.2441 73.4358 -18.4474 59.3998 -23.5159L 42.429 23.5159C 57.2578 28.8629 71.5093 33.4729 84.9619 37.5475L 99.4523 -10.3068Z"/>
</defs>
</svg>
